<svg width="94" height="23" viewBox="0 0 94 23" fill="none" xmlns="http://www.w3.org/2000/svg">
<path d="M56.618 22.6563C53.0951 22.6563 51.6356 18.5278 50.1761 14.5C49.0689 11.4792 47.861 8.05556 46.0996 8.05556C44.3382 8.05556 43.3316 9.51563 41.9225 11.9826C40.5133 14.3993 38.9028 17.1181 35.5812 17.1181C32.0583 17.1181 30.5485 12.9896 29.1394 8.96181C28.0322 5.94097 26.8243 2.51736 25.0629 2.51736C23.3014 2.51736 22.0936 5.94097 20.9864 8.96181C19.5269 12.9392 18.0674 17.1181 14.5445 17.1181C11.1726 17.1181 9.61243 14.3993 8.20327 11.9826C6.79411 9.56597 5.78757 8.05556 4.02612 8.05556C3.32154 8.05556 2.76794 7.50174 2.76794 6.79688C2.76794 6.09201 3.32154 5.5382 4.02612 5.5382C7.39804 5.5382 8.95818 8.25695 10.3673 10.6736C11.7765 13.0903 12.783 14.6007 14.5445 14.6007C16.3059 14.6007 17.5138 11.1771 18.621 8.15625C20.0805 4.17882 21.54 0 25.0629 0C28.5858 0 30.0452 4.12847 31.5047 8.15625C32.6119 11.1771 33.8198 14.6007 35.5812 14.6007C37.3427 14.6007 38.3492 13.1406 39.7584 10.6736C41.1675 8.25695 42.778 5.5382 46.0996 5.5382C49.6225 5.5382 51.082 9.66667 52.5415 13.6944C53.6487 16.7153 54.8565 20.1389 56.618 20.1389C58.3794 20.1389 59.5873 16.7153 60.6945 13.6944C62.154 9.71702 63.6134 5.5382 67.1363 5.5382C70.5083 5.5382 72.0684 8.25695 73.4776 10.6736C74.8867 13.0903 75.8933 14.6007 77.6547 14.6007C79.4162 14.6007 80.4227 13.1406 81.8319 10.6736C83.241 8.25695 84.8515 5.5382 88.1731 5.5382C88.8777 5.5382 89.4313 6.09201 89.4313 6.79688C89.4313 7.50174 88.8777 8.05556 88.1731 8.05556C86.4116 8.05556 85.4051 9.51563 83.9959 11.9826C82.5868 14.3993 80.9763 17.1181 77.6547 17.1181C74.3331 17.1181 72.7226 14.3993 71.3135 11.9826C69.9043 9.56597 68.8978 8.05556 67.1363 8.05556C65.3749 8.05556 64.167 11.4792 63.0598 14.5C61.6004 18.5278 60.1409 22.6563 56.618 22.6563Z" fill="white" fill-opacity="0.3"/>
<path d="M93.9104 6.79687C93.9104 9.06249 92.0483 10.9253 89.7836 10.9253C87.5188 10.9253 85.6567 9.06249 85.6567 6.79687C85.6567 4.53124 87.5188 2.6684 89.7836 2.6684C92.0483 2.6684 93.9104 4.53124 93.9104 6.79687Z" fill="#E3A810"/>
<path d="M8.25365 6.79687C8.25365 9.06249 6.39154 10.9253 4.12682 10.9253C1.8621 10.9253 0 9.06249 0 6.79687C0 4.53124 1.8621 2.6684 4.12682 2.6684C6.44187 2.6684 8.25365 4.53124 8.25365 6.79687Z" fill="#E3A810"/>
</svg>
